<svg xmlns="http://www.w3.org/2000/svg" width="10" height="11.938" viewBox="0 0 10 11.938">
  <metadata><?xpacket begin="﻿" id="W5M0MpCehiHzreSzNTczkc9d"?>
<x:xmpmeta xmlns:x="adobe:ns:meta/" x:xmptk="Adobe XMP Core 5.6-c138 79.159824, 2016/09/14-01:09:01        ">
   <rdf:RDF xmlns:rdf="http://www.w3.org/1999/02/22-rdf-syntax-ns#">
      <rdf:Description rdf:about=""/>
   </rdf:RDF>
</x:xmpmeta>
                                                                                                    
                                                                                                    
                                                                                                    
                                                                                                    
                                                                                                    
                                                                                                    
                                                                                                    
                                                                                                    
                                                                                                    
                                                                                                    
                                                                                                    
                                                                                                    
                                                                                                    
                                                                                                    
                                                                                                    
                                                                                                    
                                                                                                    
                                                                                                    
                                                                                                    
                                                                                                    
                           
<?xpacket end="w"?></metadata>
<defs>
    <style>
      .cls-1 {
        fill: #33c7fd;
        fill-rule: evenodd;
      }
    </style>
  </defs>
  <path id="Р" class="cls-1" d="M1087.08,51.983V46.972h2.55a2.811,2.811,0,0,0,1.37-.337,3.312,3.312,0,0,0,1.06-.893,4.255,4.255,0,0,0,.69-1.272,4.611,4.611,0,0,0,.24-1.475c0-.483-0.09.037-0.26-0.441a4.426,4.426,0,0,0-.71-1.281,3.717,3.717,0,0,0-1.09-.91,2.814,2.814,0,0,0-1.37-.346h-4.57V51.983h2.09Zm0-9.926h2.34a1.264,1.264,0,0,1,.54.127,1.241,1.241,0,0,1,.46.379c0.13,0.169.24-.626,0.32-0.385a2.594,2.594,0,0,1,.12.817,2.383,2.383,0,0,1-.38,1.416,1.166,1.166,0,0,1-.97.522h-2.43V42.057ZM1083,45h4v2h-4V45Zm0,3h8v2h-8V48Z" transform="translate(-1083 -40.031)"/>
</svg>
